<mxfile host="65bd71144e">
    <diagram id="NEm1ySskwOPiRhlZ9esV" name="Page-1">
        <mxGraphModel dx="1975" dy="1416" grid="1" gridSize="10" guides="1" tooltips="1" connect="1" arrows="1" fold="1" page="1" pageScale="1" pageWidth="1169" pageHeight="827" math="0" shadow="0">
            <root>
                <mxCell id="0"/>
                <mxCell id="1" parent="0"/>
                <mxCell id="2" value="" style="externalPins=0;recursiveResize=0;shadow=0;dashed=0;align=center;html=1;strokeWidth=1;shape=mxgraph.rtl.abstract.entity;container=1;collapsible=0;kind=sequential;drawPins=0;left=3;right=2;bottom=0;top=0;" parent="1" vertex="1">
                    <mxGeometry x="669" y="287" width="140" height="140" as="geometry"/>
                </mxCell>
                <mxCell id="15" value="" style="triangle;whiteSpace=wrap;html=1;" parent="2" vertex="1">
                    <mxGeometry y="120" width="10" height="20" as="geometry"/>
                </mxCell>
                <mxCell id="24" value="tiles" style="text;html=1;strokeColor=none;fillColor=none;align=center;verticalAlign=middle;whiteSpace=wrap;rounded=0;" parent="2" vertex="1">
                    <mxGeometry x="110" y="67" width="30" height="10" as="geometry"/>
                </mxCell>
                <mxCell id="35" value="DUT" style="text;html=1;strokeColor=none;fillColor=none;align=center;verticalAlign=middle;whiteSpace=wrap;rounded=0;strokeWidth=2;" parent="2" vertex="1">
                    <mxGeometry x="-6" y="-16" width="40" height="20" as="geometry"/>
                </mxCell>
                <mxCell id="36" value="Randomizer" style="text;html=1;strokeColor=none;fillColor=none;align=center;verticalAlign=middle;whiteSpace=wrap;rounded=0;strokeWidth=2;" parent="2" vertex="1">
                    <mxGeometry x="70" y="130" width="70" height="10" as="geometry"/>
                </mxCell>
                <mxCell id="51" value="doneMode" style="text;html=1;strokeColor=none;fillColor=none;align=center;verticalAlign=middle;whiteSpace=wrap;rounded=0;" vertex="1" parent="2">
                    <mxGeometry x="80" y="33" width="60" height="14" as="geometry"/>
                </mxCell>
                <mxCell id="39" style="edgeStyle=none;html=1;exitX=0;exitY=0;exitDx=120;exitDy=50;exitPerimeter=0;entryX=0;entryY=0.36;entryDx=0;entryDy=0;entryPerimeter=0;strokeWidth=2;" parent="1" source="3" target="2" edge="1">
                    <mxGeometry relative="1" as="geometry"/>
                </mxCell>
                <mxCell id="3" value="" style="externalPins=0;recursiveResize=0;shadow=0;dashed=0;align=center;html=1;strokeWidth=1;shape=mxgraph.rtl.abstract.entity;container=1;collapsible=0;kind=sequential;drawPins=0;left=3;right=2;bottom=0;top=0;" parent="1" vertex="1">
                    <mxGeometry x="439" y="287" width="120" height="140" as="geometry"/>
                </mxCell>
                <mxCell id="14" value="" style="triangle;whiteSpace=wrap;html=1;" parent="3" vertex="1">
                    <mxGeometry y="120" width="10" height="20" as="geometry"/>
                </mxCell>
                <mxCell id="40" value="bombLocations" style="text;html=1;strokeColor=none;fillColor=none;align=center;verticalAlign=middle;whiteSpace=wrap;rounded=0;strokeWidth=2;" parent="3" vertex="1">
                    <mxGeometry x="62" y="43" width="30" height="11" as="geometry"/>
                </mxCell>
                <mxCell id="44" value="clearTilesMask" style="text;html=1;strokeColor=none;fillColor=none;align=center;verticalAlign=middle;whiteSpace=wrap;rounded=0;strokeWidth=2;" vertex="1" parent="3">
                    <mxGeometry x="40" y="64.5" width="80" height="11" as="geometry"/>
                </mxCell>
                <mxCell id="49" value="gameOverMode" style="text;html=1;strokeColor=none;fillColor=none;align=center;verticalAlign=middle;whiteSpace=wrap;rounded=0;strokeWidth=2;" vertex="1" parent="3">
                    <mxGeometry x="30" y="13" width="90" height="11" as="geometry"/>
                </mxCell>
                <mxCell id="19" style="edgeStyle=none;rounded=0;html=1;exitX=0;exitY=0;exitDx=60;exitDy=20;exitPerimeter=0;entryX=0;entryY=0.786;entryDx=0;entryDy=0;entryPerimeter=0;" parent="1" source="4" target="3" edge="1">
                    <mxGeometry relative="1" as="geometry">
                        <Array as="points">
                            <mxPoint x="359" y="471"/>
                            <mxPoint x="359" y="397"/>
                        </Array>
                    </mxGeometry>
                </mxCell>
                <mxCell id="20" style="edgeStyle=none;rounded=0;html=1;exitX=0;exitY=0;exitDx=60;exitDy=20;exitPerimeter=0;entryX=-0.013;entryY=0.758;entryDx=0;entryDy=0;entryPerimeter=0;" parent="1" source="4" target="2" edge="1">
                    <mxGeometry relative="1" as="geometry">
                        <Array as="points">
                            <mxPoint x="579" y="471"/>
                            <mxPoint x="579" y="393"/>
                        </Array>
                    </mxGeometry>
                </mxCell>
                <mxCell id="4" value="" style="externalPins=0;recursiveResize=0;shadow=0;dashed=0;align=center;html=1;strokeWidth=1;shape=mxgraph.rtl.abstract.entity;container=1;collapsible=0;kind=sequential;drawPins=0;left=3;right=2;bottom=0;top=0;" parent="1" vertex="1">
                    <mxGeometry x="259" y="451" width="60" height="40" as="geometry"/>
                </mxCell>
                <mxCell id="21" value="reset" style="text;html=1;strokeColor=none;fillColor=none;align=center;verticalAlign=middle;whiteSpace=wrap;rounded=0;" parent="4" vertex="1">
                    <mxGeometry x="20" y="15" width="40" height="10" as="geometry"/>
                </mxCell>
                <mxCell id="16" style="edgeStyle=none;html=1;exitX=0;exitY=0;exitDx=60;exitDy=20;exitPerimeter=0;entryX=0;entryY=0.5;entryDx=0;entryDy=0;rounded=0;" parent="1" source="6" target="14" edge="1">
                    <mxGeometry relative="1" as="geometry">
                        <Array as="points">
                            <mxPoint x="369" y="537"/>
                            <mxPoint x="369" y="417"/>
                        </Array>
                    </mxGeometry>
                </mxCell>
                <mxCell id="17" style="edgeStyle=none;html=1;exitX=0;exitY=0;exitDx=60;exitDy=20;exitPerimeter=0;entryX=0;entryY=0.5;entryDx=0;entryDy=0;rounded=0;" parent="1" source="6" target="15" edge="1">
                    <mxGeometry relative="1" as="geometry">
                        <Array as="points">
                            <mxPoint x="609" y="537"/>
                            <mxPoint x="609" y="417"/>
                        </Array>
                    </mxGeometry>
                </mxCell>
                <mxCell id="6" value="" style="externalPins=0;recursiveResize=0;shadow=0;dashed=0;align=center;html=1;strokeWidth=1;shape=mxgraph.rtl.abstract.entity;container=1;collapsible=0;kind=sequential;drawPins=0;left=3;right=2;bottom=0;top=0;" parent="1" vertex="1">
                    <mxGeometry x="259" y="517" width="60" height="40" as="geometry"/>
                </mxCell>
                <mxCell id="22" value="clock" style="text;html=1;strokeColor=none;fillColor=none;align=center;verticalAlign=middle;whiteSpace=wrap;rounded=0;" parent="6" vertex="1">
                    <mxGeometry x="20" y="15" width="40" height="10" as="geometry"/>
                </mxCell>
                <mxCell id="12" value="CLOCK" style="text;html=1;strokeColor=none;fillColor=none;align=center;verticalAlign=middle;whiteSpace=wrap;rounded=0;" parent="1" vertex="1">
                    <mxGeometry x="259" y="495" width="50" height="30" as="geometry"/>
                </mxCell>
                <mxCell id="18" value="RESET" style="text;html=1;strokeColor=none;fillColor=none;align=center;verticalAlign=middle;whiteSpace=wrap;rounded=0;" parent="1" vertex="1">
                    <mxGeometry x="259" y="434" width="50" height="20" as="geometry"/>
                </mxCell>
                <mxCell id="26" value="" style="endArrow=classic;html=1;rounded=0;exitX=1.007;exitY=0.518;exitDx=0;exitDy=0;strokeWidth=2;exitPerimeter=0;" parent="1" source="2" edge="1">
                    <mxGeometry width="50" height="50" relative="1" as="geometry">
                        <mxPoint x="829" y="377" as="sourcePoint"/>
                        <mxPoint x="909" y="360" as="targetPoint"/>
                    </mxGeometry>
                </mxCell>
                <mxCell id="32" value="16" style="verticalLabelPosition=top;shadow=0;dashed=0;align=center;html=1;verticalAlign=bottom;shape=mxgraph.electrical.transmission.bus_width;pointerEvents=1;strokeWidth=2;labelPosition=center;" parent="1" vertex="1">
                    <mxGeometry x="849" y="355" width="10" height="10" as="geometry"/>
                </mxCell>
                <mxCell id="37" value="STIMULUS" style="text;html=1;strokeColor=none;fillColor=none;align=center;verticalAlign=middle;whiteSpace=wrap;rounded=0;strokeWidth=2;" parent="1" vertex="1">
                    <mxGeometry x="439" y="276" width="60" height="10" as="geometry"/>
                </mxCell>
                <mxCell id="43" value="16" style="verticalLabelPosition=top;shadow=0;dashed=0;align=center;html=1;verticalAlign=bottom;shape=mxgraph.electrical.transmission.bus_width;pointerEvents=1;strokeWidth=2;labelPosition=center;" parent="1" vertex="1">
                    <mxGeometry x="599" y="332" width="10" height="10" as="geometry"/>
                </mxCell>
                <mxCell id="45" style="edgeStyle=none;html=1;exitX=1;exitY=0.5;exitDx=0;exitDy=0;entryX=-0.005;entryY=0.498;entryDx=0;entryDy=0;entryPerimeter=0;strokeWidth=2;" edge="1" parent="1" source="44" target="2">
                    <mxGeometry relative="1" as="geometry"/>
                </mxCell>
                <mxCell id="46" value="16" style="verticalLabelPosition=bottom;shadow=0;dashed=0;align=center;html=1;verticalAlign=top;shape=mxgraph.electrical.transmission.bus_width;pointerEvents=1;strokeWidth=2;labelPosition=center;" vertex="1" parent="1">
                    <mxGeometry x="599" y="352" width="10" height="10" as="geometry"/>
                </mxCell>
                <mxCell id="47" value="" style="externalPins=0;recursiveResize=0;ellipse;whiteSpace=wrap;html=1;aspect=fixed;fillColor=#000000;strokeColor=none;noLabel=1;snapToPoint=1;perimeter=none;resizable=0;rotatable=0;" vertex="1" parent="1">
                    <mxGeometry x="357" y="468" width="5" height="5" as="geometry"/>
                </mxCell>
                <mxCell id="48" value="" style="externalPins=0;recursiveResize=0;ellipse;whiteSpace=wrap;html=1;aspect=fixed;fillColor=#000000;strokeColor=none;noLabel=1;snapToPoint=1;perimeter=none;resizable=0;rotatable=0;" vertex="1" parent="1">
                    <mxGeometry x="367" y="534" width="5" height="5" as="geometry"/>
                </mxCell>
                <mxCell id="50" style="edgeStyle=none;html=1;exitX=1;exitY=0.5;exitDx=0;exitDy=0;entryX=0;entryY=0.133;entryDx=0;entryDy=0;entryPerimeter=0;strokeWidth=1;" edge="1" parent="1" source="49" target="2">
                    <mxGeometry relative="1" as="geometry"/>
                </mxCell>
                <mxCell id="52" style="edgeStyle=none;html=1;exitX=1;exitY=0.5;exitDx=0;exitDy=0;strokeWidth=1;" edge="1" parent="1" source="51">
                    <mxGeometry relative="1" as="geometry">
                        <mxPoint x="909" y="327" as="targetPoint"/>
                    </mxGeometry>
                </mxCell>
            </root>
        </mxGraphModel>
    </diagram>
</mxfile>